<svg width="44" height="48" viewBox="0 0 44 48" fill="none" xmlns="http://www.w3.org/2000/svg">
<path fill-rule="evenodd" clip-rule="evenodd" d="M10.5971 4.58717C10.5971 3.62622 11.3761 2.84721 12.3371 2.84721H31.318C32.2789 2.84721 33.0579 3.62622 33.0579 4.58717V23.5686C33.0579 24.3548 33.6953 24.9922 34.4815 24.9922C35.2677 24.9922 35.905 24.3548 35.905 23.5686V18.8125L35.9275 18.8138C36.3614 18.867 36.773 19.0361 37.119 19.3033C37.465 19.5705 37.7326 19.926 37.8937 20.3323L40.663 27.3141H29.1455C28.8326 27.3285 28.5373 27.463 28.3211 27.6897C28.1048 27.9163 27.9844 28.2176 27.9847 28.5308C27.9847 30.1444 27.3437 31.6918 26.2028 32.8327C25.0619 33.9737 23.5145 34.6146 21.9011 34.6146C20.2876 34.6146 18.7402 33.9737 17.5993 32.8327C16.4584 31.6918 15.8174 30.1444 15.8174 28.5308C15.8165 28.3488 15.775 28.1693 15.6958 28.0054C15.6166 27.8415 15.5018 27.6974 15.3597 27.5835C15.2177 27.4697 15.052 27.3891 14.8748 27.3475C14.6976 27.3059 14.5133 27.3045 14.3355 27.3433L14.3379 27.3141H3.19756L5.92302 20.3445L6.04956 20.0744C6.25808 19.6881 6.56721 19.3654 6.94421 19.1405C7.19365 18.9916 7.46666 18.8893 7.75 18.8371V23.5686C7.75 24.3548 8.38735 24.9922 9.17357 24.9922C9.95979 24.9922 10.5971 24.3548 10.5971 23.5686V4.58717ZM7.75 16.3833V4.58717C7.75 2.05375 9.8037 0 12.3371 0H31.318C33.8513 0 35.905 2.05375 35.905 4.58717V16.371C36.7834 16.4205 37.6338 16.7074 38.3645 17.2035C39.1711 17.7511 39.7947 18.5283 40.1544 19.4344L43.8021 28.6233V43.1319C43.8021 44.4227 43.2894 45.6607 42.3767 46.5734C41.4639 47.4862 40.226 47.999 38.9352 47.999H4.8669C3.57612 47.999 2.3382 47.4862 1.42548 46.5734C0.512761 45.6607 0 44.4227 0 43.1319V28.8156L3.65748 19.4587C4.01397 18.5465 4.63737 17.7631 5.44619 17.2108C6.13307 16.7418 6.92653 16.4581 7.75 16.3833ZM13.4716 29.7476H2.43345V43.1319C2.43353 43.728 2.65236 44.3033 3.04842 44.7487C3.44449 45.1941 3.99025 45.4787 4.58219 45.5484L4.8669 45.5654H38.9352C39.5313 45.5654 40.1065 45.3465 40.5519 44.9505C40.9974 44.5544 41.2819 44.0086 41.3517 43.4166L41.3687 43.1319V29.7476H30.3305C30.0376 31.7744 29.0243 33.6277 27.4762 34.9682C25.928 36.3086 23.9488 37.0464 21.9011 37.0464C19.8533 37.0464 17.8741 36.3086 16.326 34.9682C14.7779 33.6277 13.7645 31.7744 13.4716 29.7476ZM13.6016 8.54277C13.6016 7.84389 14.1681 7.27734 14.867 7.27734H28.7863C29.4851 7.27734 30.0517 7.84389 30.0517 8.54277C30.0517 9.24165 29.4851 9.8082 28.7863 9.8082H14.867C14.1681 9.8082 13.6016 9.24165 13.6016 8.54277ZM14.867 13.6035C14.1681 13.6035 13.6016 14.1701 13.6016 14.8689C13.6016 15.5678 14.1681 16.1344 14.867 16.1344H28.7863C29.4851 16.1344 30.0517 15.5678 30.0517 14.8689C30.0517 14.1701 29.4851 13.6035 28.7863 13.6035H14.867Z" fill="url(#paint0_linear_327_505)"/>
<mask id="path-2-inside-1_327_505" fill="white">
<path fill-rule="evenodd" clip-rule="evenodd" d="M10.5971 4.58717C10.5971 3.62622 11.3761 2.84721 12.3371 2.84721H31.318C32.2789 2.84721 33.0579 3.62622 33.0579 4.58717V23.5686C33.0579 24.3548 33.6953 24.9922 34.4815 24.9922C35.2677 24.9922 35.905 24.3548 35.905 23.5686V18.8125L35.9275 18.8138C36.3614 18.867 36.773 19.0361 37.119 19.3033C37.465 19.5705 37.7326 19.926 37.8937 20.3323L40.663 27.3141H29.1455C28.8326 27.3285 28.5373 27.463 28.3211 27.6897C28.1048 27.9163 27.9844 28.2176 27.9847 28.5308C27.9847 30.1444 27.3437 31.6918 26.2028 32.8327C25.0619 33.9737 23.5145 34.6146 21.9011 34.6146C20.2876 34.6146 18.7402 33.9737 17.5993 32.8327C16.4584 31.6918 15.8174 30.1444 15.8174 28.5308C15.8165 28.3488 15.775 28.1693 15.6958 28.0054C15.6166 27.8415 15.5018 27.6974 15.3597 27.5835C15.2177 27.4697 15.052 27.3891 14.8748 27.3475C14.6976 27.3059 14.5133 27.3045 14.3355 27.3433L14.3379 27.3141H3.19756L5.92302 20.3445L6.04956 20.0744C6.25808 19.6881 6.56721 19.3654 6.94421 19.1405C7.19365 18.9916 7.46666 18.8893 7.75 18.8371V23.5686C7.75 24.3548 8.38735 24.9922 9.17357 24.9922C9.95979 24.9922 10.5971 24.3548 10.5971 23.5686V4.58717ZM7.75 16.3833V4.58717C7.75 2.05375 9.8037 0 12.3371 0H31.318C33.8513 0 35.905 2.05375 35.905 4.58717V16.371C36.7834 16.4205 37.6338 16.7074 38.3645 17.2035C39.1711 17.7511 39.7947 18.5283 40.1544 19.4344L43.8021 28.6233V43.1319C43.8021 44.4227 43.2894 45.6607 42.3767 46.5734C41.4639 47.4862 40.226 47.999 38.9352 47.999H4.8669C3.57612 47.999 2.3382 47.4862 1.42548 46.5734C0.512761 45.6607 0 44.4227 0 43.1319V28.8156L3.65748 19.4587C4.01397 18.5465 4.63737 17.7631 5.44619 17.2108C6.13307 16.7418 6.92653 16.4581 7.75 16.3833ZM13.4716 29.7476H2.43345V43.1319C2.43353 43.728 2.65236 44.3033 3.04842 44.7487C3.44449 45.1941 3.99025 45.4787 4.58219 45.5484L4.8669 45.5654H38.9352C39.5313 45.5654 40.1065 45.3465 40.5519 44.9505C40.9974 44.5544 41.2819 44.0086 41.3517 43.4166L41.3687 43.1319V29.7476H30.3305C30.0376 31.7744 29.0243 33.6277 27.4762 34.9682C25.928 36.3086 23.9488 37.0464 21.9011 37.0464C19.8533 37.0464 17.8741 36.3086 16.326 34.9682C14.7779 33.6277 13.7645 31.7744 13.4716 29.7476ZM13.6016 8.54277C13.6016 7.84389 14.1681 7.27734 14.867 7.27734H28.7863C29.4851 7.27734 30.0517 7.84389 30.0517 8.54277C30.0517 9.24165 29.4851 9.8082 28.7863 9.8082H14.867C14.1681 9.8082 13.6016 9.24165 13.6016 8.54277ZM14.867 13.6035C14.1681 13.6035 13.6016 14.1701 13.6016 14.8689C13.6016 15.5678 14.1681 16.1344 14.867 16.1344H28.7863C29.4851 16.1344 30.0517 15.5678 30.0517 14.8689C30.0517 14.1701 29.4851 13.6035 28.7863 13.6035H14.867Z"/>
</mask>
<path d="M35.905 18.8125L35.9381 18.2357L35.3273 18.2007V18.8125H35.905ZM35.9275 18.8138L35.9977 18.2403L35.9792 18.2381L35.9606 18.237L35.9275 18.8138ZM37.119 19.3033L36.7658 19.7605L36.7658 19.7606L37.119 19.3033ZM37.8937 20.3323L37.3566 20.5453L37.3566 20.5454L37.8937 20.3323ZM40.663 27.3141V27.8919H41.5137L41.2001 27.1011L40.663 27.3141ZM29.1455 27.3141V26.7363H29.1322L29.1189 26.7369L29.1455 27.3141ZM28.3211 27.6897L28.7391 28.0885L28.7391 28.0885L28.3211 27.6897ZM27.9847 28.5308H28.5625V28.5302L27.9847 28.5308ZM17.5993 32.8327L18.0079 32.4242H18.0079L17.5993 32.8327ZM15.8174 28.5308H16.3952L16.3952 28.528L15.8174 28.5308ZM15.6958 28.0054L15.1755 28.2567L15.1755 28.2567L15.6958 28.0054ZM15.3597 27.5835L14.9984 28.0344H14.9984L15.3597 27.5835ZM14.3355 27.3433L13.7597 27.2953L13.6947 28.0745L14.4586 27.9078L14.3355 27.3433ZM14.3379 27.3141L14.9137 27.3621L14.9659 26.7363H14.3379V27.3141ZM3.19756 27.3141L2.65945 27.1037L2.35122 27.8919H3.19756V27.3141ZM5.92302 20.3445L5.3998 20.0994L5.39179 20.1165L5.38492 20.1341L5.92302 20.3445ZM6.04956 20.0744L5.54112 19.7999L5.53331 19.8144L5.52634 19.8293L6.04956 20.0744ZM6.94421 19.1405L6.64818 18.6443V18.6443L6.94421 19.1405ZM7.75 18.8371H8.32779V18.1431L7.64529 18.2689L7.75 18.8371ZM7.75 16.3833L7.80229 16.9587L8.32779 16.9109V16.3833H7.75ZM35.905 16.371H35.3273V16.9171L35.8725 16.9479L35.905 16.371ZM38.3645 17.2035L38.04 17.6815L38.3645 17.2035ZM40.1544 19.4344L40.6914 19.2212L40.6914 19.2212L40.1544 19.4344ZM43.8021 28.6233H44.3799V28.5128L44.3392 28.4101L43.8021 28.6233ZM42.3767 46.5734L42.7852 46.982L42.3767 46.5734ZM1.42548 46.5734L1.01692 46.982H1.01692L1.42548 46.5734ZM0 28.8156L-0.538134 28.6052L-0.577785 28.7067V28.8156H0ZM3.65748 19.4587L4.19561 19.6691L4.19563 19.669L3.65748 19.4587ZM5.44619 17.2108L5.77199 17.688L5.44619 17.2108ZM2.43345 29.7476V29.1698H1.85567V29.7476H2.43345ZM13.4716 29.7476L14.0434 29.6649L13.9719 29.1698H13.4716V29.7476ZM2.43345 43.1319H1.85567L1.85567 43.132L2.43345 43.1319ZM3.04842 44.7487L3.4802 44.3648L3.04842 44.7487ZM4.58219 45.5484L4.51459 46.1222L4.53109 46.1242L4.54768 46.1252L4.58219 45.5484ZM4.8669 45.5654L4.83239 46.1422L4.84963 46.1432H4.8669V45.5654ZM38.9352 45.5654V46.1432H38.9353L38.9352 45.5654ZM40.5519 44.9505L40.9359 45.3822V45.3822L40.5519 44.9505ZM41.3517 43.4166L41.9255 43.4842L41.9274 43.4677L41.9284 43.4512L41.3517 43.4166ZM41.3687 43.1319L41.9454 43.1664L41.9465 43.1492V43.1319H41.3687ZM41.3687 29.7476H41.9465V29.1698H41.3687V29.7476ZM30.3305 29.7476V29.1698H29.8303L29.7587 29.6649L30.3305 29.7476ZM27.4762 34.9682L27.0979 34.5314L27.4762 34.9682ZM16.326 34.9682L16.7042 34.5314L16.326 34.9682ZM12.3371 2.26943C11.057 2.26943 10.0194 3.30713 10.0194 4.58717H11.1749C11.1749 3.94531 11.6952 3.425 12.3371 3.425V2.26943ZM31.318 2.26943H12.3371V3.425H31.318V2.26943ZM33.6357 4.58717C33.6357 3.30713 32.598 2.26943 31.318 2.26943V3.425C31.9598 3.425 32.4801 3.94531 32.4801 4.58717H33.6357ZM33.6357 23.5686V4.58717H32.4801V23.5686H33.6357ZM34.4815 24.4144C34.0144 24.4144 33.6357 24.0357 33.6357 23.5686H32.4801C32.4801 24.6739 33.3761 25.57 34.4815 25.57V24.4144ZM35.3273 23.5686C35.3273 24.0357 34.9486 24.4144 34.4815 24.4144V25.57C35.5868 25.57 36.4828 24.6739 36.4828 23.5686H35.3273ZM35.3273 18.8125V23.5686H36.4828V18.8125H35.3273ZM35.9606 18.237L35.9381 18.2357L35.872 19.3894L35.8944 19.3907L35.9606 18.237ZM37.4721 18.846C37.044 18.5153 36.5347 18.3061 35.9977 18.2403L35.8572 19.3873C36.1881 19.4279 36.502 19.5568 36.7658 19.7605L37.4721 18.846ZM38.4308 20.1194C38.2314 19.6165 37.9003 19.1766 37.4721 18.846L36.7658 19.7606C37.0297 19.9643 37.2337 20.2354 37.3566 20.5453L38.4308 20.1194ZM41.2001 27.1011L38.4308 20.1193L37.3566 20.5454L40.1259 27.5271L41.2001 27.1011ZM29.1455 27.8919H40.663V26.7363H29.1455V27.8919ZM28.7391 28.0885C28.8527 27.9695 29.0077 27.8988 29.172 27.8913L29.1189 26.7369C28.6574 26.7582 28.2219 26.9566 27.903 27.2908L28.7391 28.0885ZM28.5625 28.5302C28.5623 28.3657 28.6256 28.2075 28.7391 28.0885L27.903 27.2908C27.5841 27.6251 27.4064 28.0695 27.4069 28.5315L28.5625 28.5302ZM26.6114 33.2413C27.8607 31.992 28.5625 30.2976 28.5625 28.5308H27.4069C27.4069 29.9911 26.8268 31.3916 25.7943 32.4242L26.6114 33.2413ZM21.9011 35.1924C23.6678 35.1924 25.3621 34.4906 26.6114 33.2413L25.7943 32.4242C24.7617 33.4568 23.3613 34.0368 21.9011 34.0368V35.1924ZM17.1907 33.2413C18.44 34.4906 20.1343 35.1924 21.9011 35.1924V34.0368C20.4408 34.0368 19.0404 33.4568 18.0079 32.4242L17.1907 33.2413ZM15.2397 28.5308C15.2397 30.2976 15.9415 31.992 17.1907 33.2413L18.0079 32.4242C16.9753 31.3916 16.3952 29.9911 16.3952 28.5308H15.2397ZM15.1755 28.2567C15.2173 28.3431 15.2392 28.4377 15.2397 28.5337L16.3952 28.528C16.3939 28.2599 16.3327 27.9955 16.216 27.754L15.1755 28.2567ZM14.9984 28.0344C15.0733 28.0944 15.1338 28.1704 15.1755 28.2567L16.216 27.754C16.0994 27.5126 15.9303 27.3003 15.721 27.1326L14.9984 28.0344ZM14.7429 27.91C14.8363 27.9319 14.9236 27.9744 14.9984 28.0344L15.721 27.1326C15.5118 26.965 15.2678 26.8462 15.0067 26.785L14.7429 27.91ZM14.4586 27.9078C14.5523 27.8874 14.6495 27.8881 14.7429 27.91L15.0067 26.785C14.7457 26.7237 14.4743 26.7216 14.2123 26.7788L14.4586 27.9078ZM13.7621 27.2661L13.7597 27.2953L14.9113 27.3913L14.9137 27.3621L13.7621 27.2661ZM3.19756 27.8919H14.3379V26.7363H3.19756V27.8919ZM5.38492 20.1341L2.65945 27.1037L3.73566 27.5245L6.46113 20.5549L5.38492 20.1341ZM5.52634 19.8293L5.3998 20.0994L6.44624 20.5896L6.57278 20.3195L5.52634 19.8293ZM6.64818 18.6443C6.18167 18.9226 5.79914 19.3219 5.54112 19.7999L6.55801 20.3488C6.71702 20.0542 6.95275 19.8082 7.24024 19.6366L6.64818 18.6443ZM7.64529 18.2689C7.29468 18.3335 6.95685 18.4601 6.64818 18.6443L7.24024 19.6366C7.43045 19.5232 7.63863 19.4451 7.85471 19.4053L7.64529 18.2689ZM8.32779 23.5686V18.8371H7.17221V23.5686H8.32779ZM9.17357 24.4144C8.70647 24.4144 8.32779 24.0357 8.32779 23.5686H7.17221C7.17221 24.6739 8.06824 25.57 9.17357 25.57V24.4144ZM10.0194 23.5686C10.0194 24.0357 9.64067 24.4144 9.17357 24.4144V25.57C10.2789 25.57 11.1749 24.6739 11.1749 23.5686H10.0194ZM10.0194 4.58717V23.5686H11.1749V4.58717H10.0194ZM7.17221 4.58717V16.3833H8.32779V4.58717H7.17221ZM12.3371 -0.577785C9.48458 -0.577785 7.17221 1.73466 7.17221 4.58717H8.32779C8.32779 2.37284 10.1228 0.577785 12.3371 0.577785V-0.577785ZM31.318 -0.577785H12.3371V0.577785H31.318V-0.577785ZM36.4828 4.58717C36.4828 1.73466 34.1705 -0.577785 31.318 -0.577785V0.577785C33.5322 0.577785 35.3273 2.37284 35.3273 4.58717H36.4828ZM36.4828 16.371V4.58717H35.3273V16.371H36.4828ZM38.689 16.7255C37.8716 16.1705 36.9202 15.8496 35.9376 15.7941L35.8725 16.9479C36.6466 16.9915 37.396 17.2444 38.04 17.6815L38.689 16.7255ZM40.6914 19.2212C40.289 18.2075 39.5914 17.338 38.689 16.7255L38.04 17.6815C38.7508 18.1641 39.3004 18.849 39.6174 19.6476L40.6914 19.2212ZM44.3392 28.4101L40.6914 19.2212L39.6174 19.6476L43.2651 28.8365L44.3392 28.4101ZM44.3799 43.1319V28.6233H43.2243V43.1319H44.3799ZM42.7852 46.982C43.8063 45.9609 44.3799 44.576 44.3799 43.1319H43.2243C43.2243 44.2695 42.7725 45.3605 41.9681 46.1649L42.7852 46.982ZM38.9352 48.5767C40.3793 48.5767 41.7641 48.0031 42.7852 46.982L41.9681 46.1649C41.1637 46.9693 40.0728 47.4212 38.9352 47.4212V48.5767ZM4.8669 48.5767H38.9352V47.4212H4.8669V48.5767ZM1.01692 46.982C2.038 48.0031 3.42288 48.5767 4.8669 48.5767V47.4212C3.72936 47.4212 2.63841 46.9693 1.83404 46.1649L1.01692 46.982ZM-0.577785 43.1319C-0.577785 44.576 -0.00415388 45.9609 1.01692 46.982L1.83404 46.1649C1.02968 45.3605 0.577785 44.2695 0.577785 43.1319H-0.577785ZM-0.577785 28.8156V43.1319H0.577785V28.8156H-0.577785ZM3.11934 19.2484L-0.538134 28.6052L0.538134 29.0259L4.19561 19.6691L3.11934 19.2484ZM5.12039 16.7337C4.21554 17.3515 3.51814 18.2279 3.11933 19.2484L4.19563 19.669C4.5098 18.8651 5.05919 18.1747 5.77199 17.688L5.12039 16.7337ZM7.69771 15.8078C6.77647 15.8916 5.88881 16.209 5.12039 16.7337L5.77199 17.688C6.37732 17.2747 7.07659 17.0246 7.80229 16.9587L7.69771 15.8078ZM2.43345 30.3254H13.4716V29.1698H2.43345V30.3254ZM3.01124 43.1319V29.7476H1.85567V43.1319H3.01124ZM3.4802 44.3648C3.17817 44.0251 3.0113 43.5864 3.01124 43.1319L1.85567 43.132C1.85576 43.8696 2.12654 44.5814 2.61665 45.1326L3.4802 44.3648ZM4.64979 44.9746C4.1984 44.9214 3.78223 44.7044 3.4802 44.3648L2.61665 45.1326C3.10675 45.6838 3.7821 46.0359 4.51459 46.1222L4.64979 44.9746ZM4.90141 44.9887L4.6167 44.9717L4.54768 46.1252L4.83239 46.1422L4.90141 44.9887ZM38.9352 44.9877H4.8669V46.1432H38.9352V44.9877ZM40.168 44.5187C39.8284 44.8207 39.3897 44.9876 38.9352 44.9877L38.9353 46.1432C39.6729 46.1431 40.3847 45.8723 40.9359 45.3822L40.168 44.5187ZM40.7778 43.349C40.7247 43.8005 40.5077 44.2167 40.168 44.5187L40.9359 45.3822C41.4871 44.8921 41.8392 44.2167 41.9255 43.4842L40.7778 43.349ZM40.7919 43.0974L40.7749 43.3821L41.9284 43.4512L41.9454 43.1664L40.7919 43.0974ZM40.7909 29.7476V43.1319H41.9465V29.7476H40.7909ZM30.3305 30.3254H41.3687V29.1698H30.3305V30.3254ZM27.8544 35.405C29.5075 33.9736 30.5896 31.9945 30.9024 29.8303L29.7587 29.6649C29.4856 31.5542 28.541 33.2819 27.0979 34.5314L27.8544 35.405ZM21.9011 37.6242C24.0878 37.6242 26.2012 36.8364 27.8544 35.405L27.0979 34.5314C25.6549 35.7809 23.8099 36.4687 21.9011 36.4687V37.6242ZM15.9478 35.405C17.6009 36.8364 19.7144 37.6242 21.9011 37.6242V36.4687C19.9922 36.4687 18.1473 35.7809 16.7042 34.5314L15.9478 35.405ZM12.8997 29.8303C13.2126 31.9945 14.2947 33.9736 15.9478 35.405L16.7042 34.5314C15.2611 33.2819 14.3165 31.5542 14.0434 29.6649L12.8997 29.8303ZM14.867 6.69956C13.849 6.69956 13.0238 7.52479 13.0238 8.54277H14.1793C14.1793 8.163 14.4872 7.85513 14.867 7.85513V6.69956ZM28.7863 6.69956H14.867V7.85513H28.7863V6.69956ZM30.6295 8.54277C30.6295 7.52479 29.8042 6.69956 28.7863 6.69956V7.85513C29.166 7.85513 29.4739 8.163 29.4739 8.54277H30.6295ZM28.7863 10.386C29.8042 10.386 30.6295 9.56075 30.6295 8.54277H29.4739C29.4739 8.92254 29.166 9.23041 28.7863 9.23041V10.386ZM14.867 10.386H28.7863V9.23041H14.867V10.386ZM13.0238 8.54277C13.0238 9.56075 13.849 10.386 14.867 10.386V9.23041C14.4872 9.23041 14.1793 8.92254 14.1793 8.54277H13.0238ZM14.1793 14.8689C14.1793 14.4892 14.4872 14.1813 14.867 14.1813V13.0257C13.849 13.0257 13.0238 13.851 13.0238 14.8689H14.1793ZM14.867 15.5566C14.4872 15.5566 14.1793 15.2487 14.1793 14.8689H13.0238C13.0238 15.8869 13.849 16.7122 14.867 16.7122V15.5566ZM28.7863 15.5566H14.867V16.7122H28.7863V15.5566ZM29.4739 14.8689C29.4739 15.2487 29.166 15.5566 28.7863 15.5566V16.7122C29.8042 16.7122 30.6295 15.8869 30.6295 14.8689H29.4739ZM28.7863 14.1813C29.166 14.1813 29.4739 14.4892 29.4739 14.8689H30.6295C30.6295 13.851 29.8042 13.0257 28.7863 13.0257V14.1813ZM14.867 14.1813H28.7863V13.0257H14.867V14.1813Z" fill="#D5D5D5" mask="url(#path-2-inside-1_327_505)"/>
<defs>
<linearGradient id="paint0_linear_327_505" x1="21.9011" y1="0" x2="21.9011" y2="47.999" gradientUnits="userSpaceOnUse">
<stop stop-color="#D5D5D5"/>
<stop offset="1" stop-color="#BFBFBF" stop-opacity="0.01"/>
</linearGradient>
</defs>
</svg>
